# xmcd
#
# Track frame offsets: 
#        150
#        15911
#        38362
#        51482
#        72492
#        87248
#        100796
#        120628
#        140332
#        161121
#        184257
#        199476
#        217244
#        237709
#        255243
#        270280
#        289227
#        302995
#
# Disc length: 4292 seconds
#
# Revision: 5
# Processed by: cddbd v1.5.2PL0 Copyright (c) Steve Scherf et al.
# Submitted via: ExactAudioCopy v0.90b4
#
DISCID=0c10c212
DTITLE=Doe Maar - Klaar
DYEAR=2000
DGENRE=Ska
TTITLE0=Alles Doet 't Nog
TTITLE1=Aan De Bewoners Van Dit Pand
TTITLE2=Watje
TTITLE3=Een Droom
TTITLE4=Oorlog
TTITLE5=Hetzelfde Meisje
TTITLE6=Overspel
TTITLE7=Leven Met Een Zeven
TTITLE8=Tijd
TTITLE9=Het Verschikkelijke Jaar
TTITLE10=Het Beste
TTITLE11=De Kater
TTITLE12=Als Niet Als
TTITLE13=Bij Elkaar
TTITLE14=Niet Nodig
TTITLE15=Dansmuziek
TTITLE16=Silhouet
TTITLE17=Klaar
EXTD=
EXTT0=
EXTT1=
EXTT2=
EXTT3=
EXTT4=
EXTT5=
EXTT6=
EXTT7=
EXTT8=
EXTT9=
EXTT10=
EXTT11=
EXTT12=
EXTT13=
EXTT14=
EXTT15=
EXTT16=
EXTT17=
PLAYORDER=
